<svg width="128" height="128" viewBox="0 0 128 128" fill="none" xmlns="http://www.w3.org/2000/svg">
<g clip-path="url(#clip0_37_2)">
<path d="M0 0C42.24 0 84.48 0 128 0C128 42.24 128 84.48 128 128C85.76 128 43.52 128 0 128C0 85.76 0 43.52 0 0Z" fill="#36225A"/>
<path d="M0 0C42.24 0 84.48 0 128 0C128 42.24 128 84.48 128 128C85.76 128 43.52 128 0 128C0 85.76 0 43.52 0 0ZM27.625 14.5C27.5355 14.5198 27.446 14.5395 27.3538 14.5599C22.6206 15.6156 18.2716 18.3985 15.6417 22.5215C14.3945 24.532 13.6639 26.6584 13.1484 28.9609C13.1241 29.069 13.0997 29.1771 13.0746 29.2884C12.6615 31.2596 12.5883 33.2285 12.5933 35.2347C12.593 35.4909 12.5926 35.747 12.5921 36.0032C12.591 36.7009 12.5915 37.3985 12.5923 38.0962C12.5929 38.8511 12.592 39.606 12.5913 40.3609C12.5903 41.7523 12.5904 43.1436 12.5911 44.535C12.5917 45.8211 12.5918 47.1072 12.5915 48.3933C12.5915 48.4789 12.5915 48.5644 12.5915 48.6526C12.5914 49 12.5913 49.3473 12.5912 49.6947C12.5905 52.9491 12.5912 56.2034 12.5925 59.4578C12.5937 62.3432 12.5936 65.2286 12.5924 68.114C12.5911 71.3618 12.5905 74.6096 12.5913 77.8573C12.5914 78.2042 12.5915 78.5511 12.5915 78.898C12.5916 78.9834 12.5916 79.0688 12.5916 79.1568C12.5919 80.4411 12.5916 81.7253 12.5909 83.0095C12.5902 84.4716 12.5904 85.9338 12.5917 87.3959C12.5924 88.1408 12.5927 88.8857 12.5918 89.6306C12.5911 90.3145 12.5915 90.9984 12.5928 91.6822C12.5931 91.9277 12.593 92.1731 12.5924 92.4185C12.5872 94.6366 12.6372 96.9182 13.1484 99.0859C13.1751 99.203 13.2018 99.3201 13.2293 99.4407C13.9901 102.64 15.3328 105.492 17.625 107.875C17.7304 107.987 17.8358 108.099 17.9443 108.214C21.9398 112.348 27.6497 113.99 33.2837 114.132C34.0431 114.144 34.8026 114.143 35.5621 114.143C35.8177 114.143 36.0732 114.143 36.3288 114.144C37.0266 114.145 37.7244 114.145 38.4222 114.145C39.1766 114.145 39.931 114.146 40.6854 114.147C42.4187 114.149 44.152 114.15 45.8853 114.15C46.7434 114.15 47.6015 114.151 48.4596 114.151C51.4017 114.153 54.3438 114.154 57.2859 114.155C57.4703 114.155 57.6547 114.155 57.839 114.155C58.0239 114.155 58.2087 114.155 58.3935 114.155C58.7642 114.155 59.1349 114.155 59.5056 114.155C59.5975 114.155 59.6894 114.155 59.7841 114.155C62.762 114.156 65.74 114.158 68.7179 114.16C71.8725 114.164 75.0272 114.165 78.1818 114.165C78.5288 114.165 78.8758 114.165 79.2229 114.165C79.3083 114.165 79.3937 114.165 79.4817 114.165C80.8501 114.166 82.2184 114.167 83.5867 114.169C84.9648 114.171 86.3429 114.171 87.721 114.17C88.466 114.17 89.2109 114.17 89.9559 114.171C94.1802 114.195 94.1802 114.195 98.375 113.75C98.5261 113.726 98.5261 113.726 98.6802 113.701C102.464 113.087 106.81 111.643 109.5 108.75C109.5 108.667 109.5 108.585 109.5 108.5C109.573 108.487 109.647 108.474 109.723 108.461C111.308 107.97 112.577 105.179 113.322 103.808C113.526 103.311 113.581 102.908 113.625 102.375C113.708 102.375 113.79 102.375 113.875 102.375C115.439 97.9705 115.432 93.5425 115.422 88.9227C115.421 88.1607 115.422 87.3987 115.423 86.6368C115.424 85.2352 115.423 83.8337 115.422 82.4322C115.421 81.1379 115.42 79.8436 115.42 78.5493C115.42 78.463 115.42 78.3767 115.42 78.2878C115.42 77.9375 115.42 77.5871 115.42 77.2367C115.421 73.9608 115.419 70.685 115.417 67.4091C115.415 64.5033 115.414 61.5975 115.414 58.6917C115.415 58.5049 115.415 58.318 115.415 58.1311C115.415 58.0387 115.415 57.9463 115.415 57.8511C115.415 57.3859 115.415 56.9207 115.415 56.4556C115.415 56.3638 115.415 56.272 115.415 56.1774C115.416 53.7423 115.415 51.3072 115.414 48.8721C115.414 48.61 115.414 48.3479 115.413 48.0858C115.413 47.912 115.413 47.7382 115.413 47.5643C115.413 46.3556 115.413 45.1469 115.413 43.9382C115.413 42.3816 115.413 40.8249 115.411 39.2683C115.41 38.5184 115.409 37.7685 115.41 37.0187C115.41 36.3315 115.41 35.6444 115.408 34.9572C115.408 34.7095 115.408 34.4618 115.408 34.214C115.418 29.4064 114.28 24.4892 111.125 20.75C110.984 20.5825 110.984 20.5825 110.84 20.4116C107.982 17.1357 104.092 15.2595 99.875 14.4609C99.715 14.4306 99.5549 14.4003 99.39 14.369C97.172 13.9733 94.9736 13.8377 92.7235 13.8433C92.4659 13.843 92.2082 13.8426 91.9506 13.8421C91.2499 13.841 90.5492 13.8415 89.8485 13.8423C89.09 13.8429 88.3315 13.842 87.5729 13.8413C86.1751 13.8403 84.7773 13.8404 83.3795 13.8411C82.0873 13.8417 80.7952 13.8418 79.503 13.8415C79.374 13.8415 79.374 13.8415 79.2424 13.8415C78.8932 13.8414 78.544 13.8413 78.1948 13.8412C74.924 13.8405 71.6532 13.8412 68.3824 13.8425C65.4835 13.8437 62.5846 13.8436 59.6857 13.8424C56.4217 13.8411 53.1577 13.8405 49.8937 13.8413C49.5449 13.8414 49.1961 13.8415 48.8474 13.8415C48.7615 13.8416 48.6757 13.8416 48.5872 13.8416C47.2971 13.8419 46.007 13.8416 44.717 13.8409C43.2478 13.8402 41.7786 13.8404 40.3095 13.8417C39.5612 13.8424 38.813 13.8427 38.0647 13.8418C32.8109 13.7707 32.8109 13.7707 27.625 14.5Z" fill="#211B32"/>
<path d="M30.2877 33.9373C30.392 33.9366 30.4963 33.9359 30.6038 33.9352C30.9483 33.9336 31.2927 33.9357 31.6373 33.938C31.8767 33.9379 32.1161 33.9378 32.3555 33.9374C32.857 33.9372 33.3585 33.9388 33.8601 33.9417C34.5035 33.9452 35.1469 33.9449 35.7903 33.9433C36.2845 33.9424 36.7788 33.9434 37.273 33.9449C37.5103 33.9455 37.7476 33.9455 37.9848 33.945C38.3161 33.9447 38.6473 33.9467 38.9786 33.9495C39.1262 33.9486 39.1262 33.9486 39.2768 33.9478C39.9332 33.9568 39.9332 33.9568 40.2126 34.1373C40.458 34.4963 40.4233 34.7951 40.4249 35.2268C40.4257 35.3139 40.4266 35.401 40.4274 35.4907C40.4298 35.7832 40.4294 36.0757 40.4291 36.3682C40.4302 36.5776 40.4315 36.7871 40.433 36.9965C40.4364 37.5656 40.4376 38.1348 40.4383 38.704C40.4395 39.2986 40.4428 39.8931 40.4458 40.4877C40.4513 41.6139 40.4549 42.7401 40.4577 43.8664C40.4611 45.1484 40.4666 46.4304 40.4723 47.7124C40.4839 50.3499 40.4929 52.9875 40.5001 55.625C41.8823 55.2523 42.5308 54.2018 43.3765 53.1054C43.7634 52.6049 44.1621 52.1146 44.5626 51.625C45.0689 51.0047 45.5698 50.381 46.0626 49.75C46.5553 49.1189 47.0563 48.4953 47.5626 47.875C48.1974 47.097 48.8214 46.3114 49.44 45.5205C49.7866 45.0774 50.1386 44.6388 50.4908 44.2002C50.7378 43.8903 50.9825 43.5787 51.2266 43.2666C51.7897 42.5467 52.3598 41.8331 52.9376 41.125C53.6213 40.2867 54.2931 39.44 54.9589 38.5875C55.1237 38.3767 55.2891 38.1663 55.4547 37.956C55.5097 37.8862 55.5646 37.8163 55.6213 37.7443C55.7329 37.6026 55.8445 37.461 55.9562 37.3193C56.2932 36.8911 56.6268 36.4605 56.9581 36.0278C57.0363 35.926 57.1146 35.8242 57.1952 35.7193C57.3486 35.5196 57.5015 35.3195 57.6538 35.119C57.7241 35.0277 57.7944 34.9363 57.8668 34.8423C57.9287 34.7611 57.9907 34.6799 58.0545 34.5963C58.5583 34.0262 58.5583 34.0262 58.9971 33.9662C59.3206 33.9537 59.6421 33.9536 59.9658 33.9574C60.089 33.9573 60.2122 33.9573 60.3391 33.9572C60.7463 33.9575 61.1534 33.9604 61.5606 33.9634C61.843 33.9641 62.1253 33.9646 62.4076 33.965C63.1507 33.9664 63.8938 33.9701 64.6369 33.9742C65.3951 33.9781 66.1534 33.9798 66.9117 33.9817C68.3995 33.9857 69.8873 33.9921 71.3751 34C71.4163 34.1237 71.4576 34.2475 71.5001 34.375C71.3146 34.653 71.1271 34.9004 70.9141 35.1562C70.8207 35.2716 70.8207 35.2716 70.7254 35.3894C70.5931 35.5527 70.4603 35.7156 70.327 35.8781C70.0063 36.2702 69.691 36.6666 69.3751 37.0625C69.2494 37.2192 69.1238 37.376 68.9981 37.5327C68.5729 38.0642 68.1528 38.5995 67.733 39.1352C67.3285 39.6511 66.9198 40.1636 66.5093 40.6748C66.2623 40.9846 66.0176 41.2962 65.7735 41.6084C65.1428 42.4146 64.5019 43.2116 63.8547 44.0047C63.4183 44.5404 62.9878 45.0803 62.5626 45.625C62.0023 46.3425 61.4301 47.0496 60.8546 47.7549C60.4182 48.2905 59.9878 48.8304 59.5626 49.375C59.0023 50.0925 58.4301 50.7996 57.8546 51.5049C57.3612 52.1105 56.8767 52.7224 56.3961 53.3383C55.9538 53.9036 55.5014 54.4601 55.0469 55.0156C54.49 55.6976 53.9482 56.3873 53.4268 57.0971C53.1884 57.4197 52.9405 57.7337 52.6905 58.0473C52.5775 58.1906 52.5775 58.1906 52.4622 58.3367C52.3126 58.526 52.1618 58.7145 52.0096 58.9018C51.9417 58.9883 51.8738 59.0749 51.8038 59.164C51.7422 59.2409 51.6806 59.3178 51.6172 59.3969C51.4756 59.6206 51.4756 59.6206 51.5293 59.88C51.6826 60.2721 51.9202 60.6074 52.1563 60.9531C52.2122 61.0359 52.268 61.1187 52.3256 61.2041C52.7387 61.8118 53.168 62.4068 53.6016 63C55.0872 65.0364 56.4743 67.1451 57.8702 69.2436C57.9623 69.3821 57.9623 69.3821 58.0563 69.5234C58.3523 69.9683 58.6478 70.4135 58.9427 70.8591C59.4932 71.6897 60.0547 72.507 60.6459 73.3095C61.0082 73.8083 61.3482 74.3213 61.6876 74.8359C61.7546 74.937 61.8216 75.0381 61.8907 75.1423C62.0524 75.3863 62.2139 75.6306 62.3751 75.875C62.8716 74.7279 63.2995 73.5621 63.711 72.3828C63.7767 72.1956 63.8424 72.0084 63.9081 71.8212C64.4343 70.3207 64.953 68.8177 65.4698 67.3139C65.8171 66.304 66.17 65.296 66.5239 64.2883C66.6245 64.0015 66.7247 63.7146 66.8248 63.4277C67.1469 62.5045 67.4704 61.5819 67.7994 60.6611C68.4612 58.8074 69.1086 56.9495 69.7423 55.0859C70.7751 52.0489 71.8461 49.0263 72.9279 46.0064C73.2706 45.048 73.6061 44.0873 73.9376 43.125C74.4842 41.5388 75.044 39.9575 75.6133 38.3792C75.6977 38.145 75.782 37.9108 75.8658 37.6764C76.9793 34.5692 76.9793 34.5692 77.8751 34C78.2491 33.926 78.6169 33.9278 78.9973 33.9293C79.1092 33.9278 79.221 33.9264 79.3363 33.9248C79.7055 33.9207 80.0747 33.9204 80.4439 33.9204C80.7013 33.9191 80.9586 33.9177 81.216 33.9162C81.7553 33.9138 82.2946 33.9134 82.834 33.9142C83.5238 33.9149 84.2134 33.9094 84.9032 33.9022C85.4348 33.8976 85.9663 33.897 86.4979 33.8975C86.7521 33.8971 87.0063 33.8954 87.2605 33.8922C89.4966 33.867 89.4966 33.867 90.1435 34.4073C90.3491 34.6479 90.3491 34.6479 90.5001 34.875C90.5679 34.9734 90.6357 35.0719 90.7056 35.1733C91.1861 36.3424 91.5637 37.5458 91.9454 38.75C92.0858 39.1902 92.2266 39.6303 92.3677 40.0703C92.4017 40.1762 92.4356 40.2822 92.4705 40.3913C92.6719 41.0173 92.8871 41.6357 93.1167 42.2519C93.4149 43.0863 93.6783 43.9328 93.95 44.7761C94.5546 46.6507 95.1702 48.5208 95.8126 50.3828C95.8595 50.5188 95.8595 50.5188 95.9073 50.6576C96.0266 51.0033 96.1459 51.349 96.2654 51.6946C96.4928 52.3526 96.7171 53.0115 96.9376 53.6718C96.9878 53.8223 97.0381 53.9728 97.0899 54.1279C97.2219 54.531 97.3443 54.9367 97.4669 55.3427C97.7801 56.3647 98.13 57.3737 98.4785 58.384C99.0516 60.047 99.6169 61.711 100.147 63.3884C100.581 64.7618 101.039 66.1271 101.497 67.4929C101.791 68.3705 102.083 69.2486 102.376 70.1267C102.534 70.6008 102.692 71.0748 102.85 71.5488C102.915 71.7458 102.981 71.9428 103.047 72.1399C103.097 72.2894 103.097 72.2894 103.147 72.4419C104.705 77.1158 106.263 81.7897 107.821 86.4637C107.883 86.6484 107.883 86.6484 107.946 86.8368C108.025 87.0752 108.104 87.3135 108.184 87.552C108.342 88.0295 108.501 88.5068 108.667 88.9819C108.713 89.1129 108.758 89.2439 108.805 89.3789C108.842 89.484 108.879 89.5892 108.918 89.6975C109.066 90.2403 109.123 90.8236 109 91.375C108.807 91.6395 108.807 91.6395 108.5 91.875C108.158 91.9243 107.867 91.9434 107.526 91.9397C107.379 91.941 107.379 91.941 107.23 91.9423C106.907 91.9445 106.585 91.9431 106.263 91.9414C106.038 91.9417 105.814 91.9422 105.589 91.9428C105.119 91.9436 104.648 91.9425 104.178 91.9402C103.575 91.9373 102.973 91.9389 102.371 91.9419C101.907 91.9438 101.444 91.9432 100.98 91.9419C100.758 91.9416 100.536 91.942 100.314 91.9431C100.003 91.9444 99.6926 91.9424 99.3817 91.9397C99.2905 91.9407 99.1993 91.9417 99.1054 91.9427C98.4729 91.9323 98.1097 91.7769 97.6251 91.375C97.4144 90.9948 97.4144 90.9948 97.2505 90.5464C97.2201 90.4647 97.1897 90.383 97.1583 90.2989C97.0608 90.0336 96.9675 89.7671 96.8751 89.5C96.8438 89.4108 96.8126 89.3216 96.7804 89.2297C96.5854 88.6702 96.397 88.1087 96.2119 87.5458C96.1174 87.2583 96.0221 86.971 95.9266 86.6838C95.5207 85.46 95.1309 84.2317 94.7501 83C94.5436 82.3333 94.3368 81.6668 94.1292 81.0005C94.0683 80.8046 94.0076 80.6086 93.9471 80.4126C93.858 80.1243 93.7682 79.8363 93.6783 79.5483C93.6515 79.4608 93.6246 79.3733 93.597 79.2832C93.4741 78.8923 93.3543 78.5939 93.1251 78.25C92.7693 78.192 92.7693 78.192 92.343 78.2007C92.2213 78.1995 92.2213 78.1995 92.0972 78.1984C91.8242 78.1963 91.5512 78.1969 91.2782 78.1975C91.0829 78.1966 90.8877 78.1955 90.6925 78.1943C90.1612 78.1915 89.63 78.1911 89.0987 78.1914C88.6557 78.1914 88.2128 78.1903 87.7698 78.1893C86.7249 78.1869 85.6801 78.1865 84.6353 78.1874C83.5563 78.1882 82.4773 78.1853 81.3983 78.1807C80.473 78.1769 79.5476 78.1754 78.6222 78.1759C78.0691 78.1762 77.516 78.1755 76.9628 78.1724C76.4427 78.1697 75.9227 78.1699 75.4026 78.1724C75.2115 78.1728 75.0204 78.1722 74.8292 78.1704C74.5687 78.1682 74.3085 78.1697 74.048 78.1723C73.8292 78.1722 73.8292 78.1722 73.6059 78.172C73.2274 78.2153 73.2274 78.2153 73.0228 78.5404C72.8403 78.9537 72.6887 79.3723 72.5499 79.8017C72.5201 79.8917 72.4904 79.9816 72.4597 80.0743C72.3631 80.367 72.2675 80.66 72.1719 80.9531C72.1055 81.1554 72.0389 81.3578 71.9724 81.5601C71.8713 81.8671 71.7703 82.1742 71.6696 82.4813C71.4592 83.1226 71.2447 83.7623 71.0264 84.4009C70.9742 84.5546 70.9219 84.7083 70.868 84.8666C70.7707 85.1524 70.6727 85.4379 70.574 85.7232C70.5309 85.8505 70.4878 85.9777 70.4434 86.1089C70.4058 86.2183 70.3683 86.3278 70.3295 86.4406C70.1844 87.0057 70.1845 87.2602 70.4815 87.7802C70.5868 87.9326 70.6935 88.0839 70.8013 88.2343C70.9159 88.4004 71.0304 88.5664 71.1448 88.7324C71.3265 88.992 71.5087 89.2511 71.6914 89.51C71.8676 89.7608 72.0416 90.0131 72.2154 90.2656C72.2707 90.3424 72.3261 90.4193 72.3831 90.4984C72.6272 90.8546 72.7558 91.0527 72.721 91.4912C72.6735 91.6193 72.6735 91.6193 72.6251 91.75C72.0947 91.8983 71.5776 91.8953 71.0305 91.8971C70.9201 91.8979 70.8096 91.8987 70.6958 91.8996C70.3306 91.9021 69.9654 91.9035 69.6002 91.9048C69.4126 91.9055 69.4126 91.9055 69.2213 91.9063C68.5595 91.9089 67.8977 91.9107 67.2358 91.9119C66.5538 91.9133 65.8718 91.9176 65.1898 91.9225C64.664 91.9258 64.1382 91.9268 63.6124 91.9273C63.3611 91.9279 63.1098 91.9293 62.8585 91.9317C62.5058 91.9347 62.1532 91.9346 61.8005 91.9337C61.6978 91.9353 61.5951 91.9369 61.4893 91.9386C60.6622 91.9312 59.8662 91.7276 59.2565 91.1403C59.2031 91.0526 59.1498 90.9649 59.0948 90.8745C59.0244 90.7639 58.954 90.6534 58.8815 90.5395C58.7969 90.4027 58.7123 90.2659 58.6251 90.125C58.4446 89.849 58.2623 89.5744 58.08 89.2996C57.867 88.978 57.6552 88.6556 57.4437 88.333C56.0393 86.1913 54.6235 84.0581 53.1876 81.9375C51.6902 79.7258 50.2148 77.5004 48.7485 75.2681C47.7771 73.7894 46.8016 72.314 45.8038 70.853C45.7465 70.769 45.6891 70.685 45.6301 70.5984C45.2794 70.0846 45.2794 70.0846 44.9279 69.5714C44.7532 69.3167 44.5792 69.0615 44.4053 68.8061C44.3518 68.7285 44.2983 68.651 44.2432 68.571C43.8751 68.0284 43.8751 68.0284 43.8751 67.75C42.835 68.27 42.1697 69.2003 41.5235 70.1328C41.465 70.2168 41.4065 70.3009 41.3462 70.3875C41.2905 70.4699 41.2347 70.5523 41.1773 70.6372C41.128 70.71 41.0788 70.7829 41.028 70.8579C40.9775 70.946 40.9271 71.0342 40.8751 71.125C40.8109 71.2366 40.7468 71.3482 40.6808 71.4631C40.3645 72.2172 40.4505 73.0538 40.4559 73.8565C40.4558 74.0452 40.4556 74.234 40.4551 74.4228C40.4545 74.828 40.455 75.2332 40.4564 75.6384C40.4584 76.2793 40.4574 76.9201 40.4558 77.5609C40.452 79.2675 40.4522 80.9742 40.4545 82.6808C40.4561 83.8032 40.4559 84.9255 40.4522 86.0479C40.4503 86.6849 40.4513 87.3218 40.4543 87.9588C40.4556 88.3549 40.4543 88.751 40.4522 89.1471C40.4518 89.3306 40.4524 89.5142 40.4542 89.6978C40.4565 89.9485 40.4546 90.1992 40.4524 90.4499C40.4526 90.5901 40.4527 90.7304 40.4529 90.8749C40.3493 91.3743 40.145 91.5621 39.7501 91.875C39.3788 91.9356 39.08 91.9582 38.7097 91.9519C38.6066 91.9526 38.5035 91.9533 38.3972 91.954C38.0574 91.9555 37.7178 91.9524 37.378 91.9492C37.1416 91.949 36.9051 91.949 36.6687 91.9492C36.1738 91.949 35.6789 91.9467 35.184 91.9427C34.5491 91.9378 33.9144 91.9372 33.2795 91.9382C32.7915 91.9385 32.3037 91.937 31.8157 91.9349C31.5816 91.934 31.3475 91.9336 31.1133 91.9337C30.7865 91.9335 30.4598 91.9308 30.1331 91.9275C30.036 91.9278 29.939 91.9282 29.8391 91.9286C29.1947 91.9183 29.1947 91.9183 28.9128 91.7428C28.6644 91.3721 28.6985 90.9963 28.7025 90.565C28.7019 90.4685 28.7014 90.372 28.7008 90.2726C28.6993 89.9464 28.7004 89.6204 28.7016 89.2943C28.7011 89.0592 28.7004 88.8241 28.6996 88.5891C28.6977 87.941 28.6983 87.2929 28.6992 86.6448C28.6998 85.9467 28.6982 85.2486 28.697 84.5505C28.6948 83.182 28.6947 81.8135 28.6954 80.445C28.6959 79.3332 28.6957 78.2213 28.695 77.1095C28.6949 76.9515 28.6948 76.7935 28.6947 76.6307C28.6945 76.3098 28.6943 75.9888 28.6942 75.6679C28.6929 73.5117 28.6924 71.3556 28.6934 69.1994C28.6934 69.1151 28.6934 69.0307 28.6935 68.9438C28.6938 68.2587 28.6941 67.5736 28.6944 66.8884C28.6957 64.2157 28.6947 61.5429 28.6917 58.8701C28.6885 55.869 28.6869 52.8678 28.6878 49.8666C28.6882 48.2769 28.6879 46.6872 28.6857 45.0975C28.6839 43.7443 28.6838 42.391 28.686 41.0377C28.6871 40.3468 28.6873 39.6559 28.6854 38.9649C28.6837 38.3331 28.6843 37.7012 28.6867 37.0694C28.6872 36.8401 28.6868 36.6109 28.6855 36.3817C28.6839 36.0713 28.6853 35.761 28.6875 35.4506C28.6863 35.3606 28.6851 35.2706 28.6838 35.1778C28.69 34.7605 28.7247 34.5344 28.9749 34.1945C29.3888 33.9019 29.7994 33.9312 30.2877 33.9373Z" fill="#7850A7"/>
<path d="M30.2877 33.9373C30.392 33.9366 30.4963 33.9359 30.6038 33.9352C30.9483 33.9337 31.2927 33.9357 31.6373 33.938C31.8767 33.938 32.1161 33.9378 32.3555 33.9374C32.857 33.9373 33.3585 33.9388 33.8601 33.9417C34.5035 33.9452 35.1469 33.9449 35.7903 33.9433C36.2845 33.9424 36.7788 33.9434 37.273 33.9449C37.5103 33.9455 37.7476 33.9455 37.9848 33.9451C38.3161 33.9447 38.6473 33.9468 38.9786 33.9495C39.1262 33.9486 39.1262 33.9486 39.2768 33.9478C39.9332 33.9568 39.9332 33.9568 40.2126 34.1373C40.458 34.4963 40.4233 34.7951 40.4249 35.2268C40.4257 35.3139 40.4266 35.401 40.4274 35.4907C40.4298 35.7833 40.4294 36.0757 40.4291 36.3682C40.4302 36.5777 40.4315 36.7871 40.433 36.9965C40.4364 37.5657 40.4376 38.1348 40.4383 38.704C40.4395 39.2986 40.4428 39.8932 40.4458 40.4877C40.4513 41.6139 40.4549 42.7402 40.4577 43.8664C40.4611 45.1484 40.4666 46.4304 40.4723 47.7125C40.4839 50.35 40.4929 52.9875 40.5001 55.625C41.8823 55.2523 42.5308 54.2018 43.3765 53.1055C43.7634 52.6049 44.1621 52.1147 44.5626 51.625C45.0689 51.0047 45.5698 50.381 46.0626 49.75C46.5553 49.1189 47.0563 48.4953 47.5626 47.875C48.1974 47.097 48.8214 46.3114 49.44 45.5205C49.7866 45.0775 50.1386 44.6388 50.4908 44.2002C50.7378 43.8903 50.9825 43.5787 51.2266 43.2666C51.7897 42.5467 52.3598 41.8331 52.9376 41.125C53.6213 40.2868 54.2931 39.44 54.9589 38.5875C55.1237 38.3767 55.2891 38.1663 55.4547 37.956C55.5097 37.8862 55.5646 37.8163 55.6213 37.7443C55.7329 37.6026 55.8445 37.461 55.9562 37.3194C56.2932 36.8911 56.6268 36.4605 56.9581 36.0278C57.0363 35.926 57.1146 35.8242 57.1952 35.7193C57.3486 35.5197 57.5015 35.3196 57.6538 35.119C57.7241 35.0277 57.7944 34.9364 57.8668 34.8423C57.9287 34.7611 57.9907 34.68 58.0545 34.5963C58.5583 34.0262 58.5583 34.0262 58.9971 33.9663C59.3206 33.9537 59.6421 33.9537 59.9658 33.9574C60.089 33.9574 60.2122 33.9573 60.3391 33.9573C60.7463 33.9575 61.1534 33.9604 61.5606 33.9634C61.843 33.9641 62.1253 33.9646 62.4076 33.965C63.1507 33.9664 63.8938 33.9701 64.6369 33.9742C65.3951 33.9781 66.1534 33.9798 66.9117 33.9817C68.3995 33.9857 69.8873 33.9921 71.3751 34C71.4163 34.1237 71.4576 34.2475 71.5001 34.375C71.3146 34.653 71.1271 34.9004 70.9141 35.1562C70.8207 35.2716 70.8207 35.2716 70.7254 35.3894C70.5931 35.5527 70.4603 35.7156 70.327 35.8782C70.0063 36.2702 69.691 36.6666 69.3751 37.0625C69.2494 37.2192 69.1238 37.376 68.9981 37.5327C68.5729 38.0642 68.1528 38.5995 67.733 39.1352C67.3285 39.6512 66.9198 40.1636 66.5093 40.6748C66.2623 40.9847 66.0176 41.2962 65.7735 41.6084C65.1428 42.4146 64.5019 43.2117 63.8547 44.0047C63.4183 44.5404 62.9878 45.0803 62.5626 45.625C62.0023 46.3425 61.4301 47.0496 60.8546 47.7549C60.4182 48.2906 59.9878 48.8304 59.5626 49.375C59.0023 50.0925 58.4301 50.7996 57.8546 51.5049C57.3612 52.1105 56.8767 52.7224 56.3961 53.3383C55.9538 53.9036 55.5014 54.4601 55.0469 55.0156C54.49 55.6977 53.9482 56.3873 53.4268 57.0972C53.1884 57.4197 52.9405 57.7338 52.6905 58.0474C52.5775 58.1906 52.5775 58.1906 52.4622 58.3367C52.3126 58.5261 52.1618 58.7145 52.0096 58.9018C51.9417 58.9884 51.8738 59.0749 51.8038 59.1641C51.7422 59.2409 51.6806 59.3178 51.6172 59.397C51.4756 59.6206 51.4756 59.6206 51.5293 59.8801C51.6826 60.2721 51.9202 60.6074 52.1563 60.9531C52.2122 61.0359 52.268 61.1188 52.3256 61.2041C52.7387 61.8119 53.168 62.4068 53.6016 63C55.0872 65.0365 56.4743 67.1452 57.8702 69.2436C57.9623 69.3821 57.9623 69.3821 58.0563 69.5234C58.3523 69.9683 58.6478 70.4135 58.9427 70.8591C59.492 71.6879 60.0526 72.5031 60.6425 73.3038C61.0287 73.8371 61.3885 74.3874 61.7501 74.9375C62.4274 75.9616 62.4274 75.9616 63.1407 76.9609C63.5357 77.4945 63.9069 78.0405 64.2735 78.5937C64.9785 79.6577 65.6908 80.7165 66.4063 81.7734C66.4634 81.8577 66.5204 81.942 66.5792 82.0288C67.2924 83.082 68.012 84.1303 68.7423 85.1719C69.9429 86.885 71.095 88.6309 72.251 90.3744C72.417 90.6248 72.5834 90.875 72.7501 91.125C72.7032 91.4609 72.7032 91.4609 72.6251 91.75C72.0947 91.8983 71.5776 91.8953 71.0305 91.8971C70.9201 91.8979 70.8096 91.8988 70.6958 91.8996C70.3306 91.9021 69.9654 91.9035 69.6002 91.9048C69.4126 91.9055 69.4126 91.9055 69.2213 91.9063C68.5595 91.9089 67.8977 91.9107 67.2358 91.9119C66.5538 91.9133 65.8718 91.9176 65.1898 91.9225C64.664 91.9258 64.1382 91.9268 63.6124 91.9273C63.3611 91.9279 63.1098 91.9294 62.8585 91.9317C62.5058 91.9347 62.1532 91.9346 61.8005 91.9337C61.6978 91.9353 61.5951 91.9369 61.4893 91.9386C60.6622 91.9312 59.8662 91.7277 59.2565 91.1403C59.2031 91.0526 59.1498 90.9649 59.0948 90.8745C59.0244 90.7639 58.954 90.6534 58.8815 90.5395C58.7969 90.4027 58.7123 90.2659 58.6251 90.125C58.4446 89.849 58.2623 89.5744 58.08 89.2996C57.867 88.978 57.6552 88.6556 57.4437 88.333C56.0393 86.1913 54.6235 84.0581 53.1876 81.9375C51.6902 79.7259 50.2148 77.5004 48.7485 75.2682C47.7771 73.7894 46.8016 72.3141 45.8038 70.853C45.7465 70.769 45.6891 70.685 45.6301 70.5984C45.2794 70.0846 45.2794 70.0846 44.9279 69.5714C44.7532 69.3167 44.5792 69.0615 44.4053 68.8061C44.3518 68.7286 44.2983 68.651 44.2432 68.571C43.8751 68.0284 43.8751 68.0284 43.8751 67.75C42.835 68.27 42.1697 69.2003 41.5235 70.1328C41.465 70.2169 41.4065 70.3009 41.3462 70.3875C41.2905 70.4699 41.2347 70.5523 41.1773 70.6372C41.128 70.71 41.0788 70.7829 41.028 70.8579C40.9775 70.9461 40.9271 71.0342 40.8751 71.125C40.8109 71.2366 40.7468 71.3482 40.6808 71.4631C40.3645 72.2172 40.4505 73.0538 40.4559 73.8565C40.4558 74.0453 40.4556 74.234 40.4551 74.4228C40.4545 74.828 40.455 75.2332 40.4564 75.6384C40.4584 76.2793 40.4574 76.9201 40.4558 77.5609C40.452 79.2676 40.4522 80.9742 40.4545 82.6808C40.4561 83.8032 40.4559 84.9255 40.4522 86.0479C40.4503 86.6849 40.4513 87.3218 40.4543 87.9588C40.4556 88.3549 40.4543 88.751 40.4522 89.1471C40.4518 89.3306 40.4524 89.5142 40.4542 89.6978C40.4565 89.9485 40.4546 90.1992 40.4524 90.4499C40.4526 90.5902 40.4527 90.7304 40.4529 90.8749C40.3493 91.3743 40.145 91.5621 39.7501 91.875C39.3788 91.9356 39.08 91.9583 38.7097 91.9519C38.6066 91.9526 38.5035 91.9533 38.3972 91.954C38.0574 91.9555 37.7178 91.9524 37.378 91.9492C37.1416 91.949 36.9051 91.949 36.6687 91.9492C36.1738 91.949 35.6789 91.9467 35.184 91.9427C34.5491 91.9378 33.9144 91.9372 33.2795 91.9382C32.7915 91.9386 32.3037 91.937 31.8157 91.9349C31.5816 91.934 31.3475 91.9336 31.1133 91.9337C30.7865 91.9335 30.4598 91.9308 30.1331 91.9275C30.036 91.9278 29.939 91.9282 29.8391 91.9286C29.1947 91.9183 29.1947 91.9183 28.9128 91.7428C28.6644 91.3721 28.6985 90.9963 28.7025 90.5651C28.7019 90.4685 28.7014 90.372 28.7008 90.2726C28.6993 89.9465 28.7004 89.6204 28.7016 89.2943C28.7011 89.0592 28.7004 88.8242 28.6996 88.5891C28.6977 87.941 28.6983 87.2929 28.6992 86.6448C28.6998 85.9467 28.6982 85.2486 28.697 84.5505C28.6948 83.182 28.6947 81.8135 28.6954 80.4451C28.6959 79.3332 28.6957 78.2214 28.695 77.1095C28.6949 76.9515 28.6948 76.7935 28.6947 76.6307C28.6945 76.3098 28.6943 75.9888 28.6942 75.6679C28.6929 73.5118 28.6924 71.3556 28.6934 69.1995C28.6934 69.1151 28.6934 69.0307 28.6935 68.9438C28.6938 68.2587 28.6941 67.5736 28.6944 66.8885C28.6957 64.2157 28.6947 61.5429 28.6917 58.8701C28.6885 55.869 28.6869 52.8678 28.6878 49.8667C28.6882 48.277 28.6879 46.6873 28.6857 45.0976C28.6839 43.7443 28.6838 42.391 28.686 41.0377C28.6871 40.3468 28.6873 39.6559 28.6854 38.9649C28.6837 38.3331 28.6843 37.7012 28.6867 37.0694C28.6872 36.8402 28.6868 36.6109 28.6855 36.3817C28.6839 36.0713 28.6853 35.7611 28.6875 35.4507C28.6863 35.3606 28.6851 35.2706 28.6838 35.1778C28.69 34.7605 28.7247 34.5344 28.9749 34.1945C29.3888 33.9019 29.7994 33.9313 30.2877 33.9373Z" fill="#B48AD6"/>
<path d="M83.25 46.875C83.3737 46.9163 83.4975 46.9575 83.625 47C83.7486 47.2902 83.846 47.5652 83.937 47.8657C83.98 48.001 83.98 48.001 84.0238 48.139C84.086 48.3353 84.1475 48.5317 84.2084 48.7284C84.3392 49.1504 84.4732 49.5714 84.607 49.9925C84.6765 50.2113 84.7458 50.4303 84.8149 50.6492C85.1275 51.6384 85.4527 52.6231 85.7824 53.6067C85.8757 53.885 85.9687 54.1633 86.0617 54.4417C86.3445 55.2884 86.6282 56.1348 86.9126 56.981C87.6115 59.0609 88.2956 61.1437 88.9429 63.2403C89.2748 64.3142 89.6201 65.3826 89.9916 66.4436C90.1847 67.0057 90.3248 67.5312 90.375 68.125C90.25 68.25 90.25 68.25 90.0179 68.2654C89.9157 68.2653 89.8135 68.2652 89.7082 68.265C89.5913 68.2652 89.4744 68.2654 89.3539 68.2656C89.2246 68.2651 89.0953 68.2647 88.9621 68.2642C88.8268 68.2642 88.6914 68.2642 88.552 68.2642C88.1022 68.2642 87.6524 68.2632 87.2026 68.2622C86.8917 68.262 86.5808 68.2618 86.2699 68.2617C85.5337 68.2612 84.7975 68.2603 84.0613 68.259C83.1412 68.2575 82.2211 68.2568 81.301 68.2561C79.659 68.2548 78.017 68.2527 76.375 68.25C76.3667 67.7115 76.4101 67.3056 76.5869 66.7954C76.6342 66.6564 76.6816 66.5174 76.7304 66.3742C76.7833 66.2224 76.8361 66.0705 76.8906 65.9141C77.0064 65.5755 77.1213 65.2367 77.2363 64.8979C77.2672 64.8074 77.298 64.7168 77.3299 64.6235C77.6881 63.5701 78.0303 62.5115 78.373 61.453C79.503 57.9652 80.6602 54.4873 81.8532 51.0206C82.3276 49.6416 82.7932 48.2599 83.25 46.875Z" fill="#332056"/>
<path d="M74.032 78.0916C74.1131 78.091 74.1943 78.0904 74.2778 78.0898C74.5508 78.0883 74.8238 78.0885 75.0969 78.0887C75.2921 78.0879 75.4873 78.0871 75.6826 78.0861C76.2138 78.0839 76.7451 78.0833 77.2763 78.0832C77.7193 78.0829 78.1623 78.082 78.6053 78.0811C79.6501 78.0791 80.6949 78.0785 81.7397 78.0787C82.8187 78.0788 83.8977 78.0762 84.9767 78.0722C85.9021 78.069 86.8274 78.0676 87.7528 78.0678C88.3059 78.0678 88.8591 78.0671 89.4122 78.0645C89.9323 78.0621 90.4523 78.062 90.9724 78.0639C91.1635 78.0641 91.3547 78.0635 91.5458 78.062C91.8063 78.0601 92.0665 78.0612 92.327 78.0632C92.4729 78.063 92.6188 78.0629 92.7691 78.0628C93.125 78.125 93.125 78.125 93.3609 78.3574C93.5268 78.6766 93.5295 78.895 93.5 79.25C93.25 78.875 93.25 78.875 93.125 78.5C90.5727 78.4942 88.0204 78.4897 85.468 78.487C84.283 78.4857 83.098 78.484 81.913 78.4811C80.8803 78.4786 79.8477 78.477 78.815 78.4765C78.268 78.4761 77.7211 78.4754 77.1741 78.4736C76.6596 78.4719 76.145 78.4713 75.6305 78.4717C75.4414 78.4716 75.2523 78.4711 75.0632 78.4702C74.8055 78.469 74.5478 78.4692 74.2901 78.4699C74.1457 78.4697 74.0013 78.4695 73.8526 78.4692C73.4742 78.4738 73.4742 78.4738 73.125 78.75C72.9998 78.9935 72.9998 78.9935 72.914 79.2656C72.8826 79.3562 72.8512 79.4467 72.8188 79.54C72.7961 79.6093 72.7734 79.6786 72.75 79.75C72.5678 79.1951 72.7423 78.8903 73 78.375C73.3458 78.0291 73.5473 78.093 74.032 78.0916Z" fill="#2A1B4A"/>
<path d="M76.6249 67C76.7499 67.375 76.7499 67.375 76.4999 68C80.9961 68 85.4924 68 90.1249 68C90.1661 67.8762 90.2074 67.7525 90.2499 67.625C90.3202 67.8672 90.3202 67.8672 90.3749 68.125C90.2499 68.25 90.2499 68.25 90.0178 68.2654C89.9156 68.2653 89.8134 68.2652 89.7081 68.265C89.5912 68.2652 89.4743 68.2654 89.3538 68.2656C89.2245 68.2651 89.0952 68.2647 88.962 68.2642C88.8267 68.2642 88.6913 68.2642 88.5519 68.2642C88.1021 68.2642 87.6523 68.2632 87.2025 68.2622C86.8916 68.262 86.5807 68.2618 86.2698 68.2617C85.5336 68.2612 84.7974 68.2603 84.0612 68.259C83.1411 68.2575 82.221 68.2568 81.3009 68.2561C79.6589 68.2548 78.0169 68.2527 76.3749 68.25C76.364 67.7549 76.3615 67.428 76.6249 67Z" fill="#2A1A4B"/>
<path d="M19.625 18.125C19.7075 18.1663 19.79 18.2075 19.875 18.25C19.7678 18.3467 19.6607 18.4434 19.5503 18.543C18.7783 19.2441 18.0368 19.9418 17.375 20.75C17.2651 20.8816 17.1551 21.0131 17.0449 21.1445C16.7372 21.5121 16.4308 21.8808 16.125 22.25C16.125 21.7484 16.3667 21.5029 16.6641 21.125C16.7199 21.0534 16.7757 20.9817 16.8332 20.9079C17.6556 19.8734 18.6048 18.9638 19.625 18.125Z" fill="#452A71"/>
<path d="M104 74.875C104.435 75.3095 104.556 75.9262 104.75 76.5C104.79 76.6159 104.829 76.7317 104.87 76.8511C104.905 76.9595 104.94 77.068 104.977 77.1797C105.008 77.2775 105.04 77.3753 105.073 77.4761C105.131 77.7804 105.083 77.9558 105 78.25C104.832 77.7817 104.666 77.3128 104.5 76.8438C104.452 76.7108 104.405 76.5779 104.355 76.4409C104.31 76.3128 104.265 76.1847 104.219 76.0527C104.177 75.9349 104.135 75.8171 104.092 75.6957C104 75.375 104 75.375 104 74.875Z" fill="#271847"/>
<path d="M31.25 14.125C31.25 14.1662 31.25 14.2075 31.25 14.25C30.5332 14.4504 29.8674 14.5472 29.125 14.5781C29.0282 14.5829 28.9313 14.5878 28.8315 14.5928C28.5961 14.6044 28.3605 14.6148 28.125 14.625C28.1663 14.5425 28.2075 14.46 28.25 14.375C29.223 14.0742 30.2428 14.0962 31.25 14.125Z" fill="#42296B"/>
<path d="M13.2501 28.75C13.2913 28.75 13.3326 28.75 13.3751 28.75C13.3784 28.9557 13.3809 29.1615 13.3829 29.3672C13.3843 29.4818 13.3858 29.5963 13.3873 29.7144C13.3751 30 13.3751 30 13.2501 30.125C13.2001 30.4402 13.1562 30.7537 13.1173 31.0703C13.1059 31.1592 13.0945 31.248 13.0828 31.3396C13.0548 31.5597 13.0274 31.7798 13.0001 32C12.9588 32 12.9176 32 12.8751 32C12.8246 30.8569 12.9468 29.853 13.2501 28.75Z" fill="#3F2869"/>
<path d="M108.875 89.5C109.326 89.9511 109.349 90.6313 109.375 91.25C109.126 91.7197 109 91.8332 108.5 92C108.562 91.8144 108.562 91.8144 108.625 91.625C108.708 91.625 108.79 91.625 108.875 91.625C108.875 90.9237 108.875 90.2225 108.875 89.5Z" fill="#2C1C4D"/>
<path d="M77.875 34C77.9575 34.0825 78.04 34.165 78.125 34.25C77.9548 34.3389 77.9548 34.3389 77.7813 34.4297C77.2509 34.7753 77.0841 35.2994 76.875 35.875C76.7629 35.5674 76.7278 35.4278 76.8569 35.1206C77.4135 34.2735 77.4135 34.2735 77.875 34Z" fill="#885DB7"/>
<path d="M42 69.375C42 69.8269 41.8885 70.014 41.625 70.375C41.5012 70.375 41.3775 70.375 41.25 70.375C41.4975 70.045 41.745 69.715 42 69.375Z" fill="#221346"/>
</g>
<defs>
<clipPath id="clip0_37_2">
<rect width="128" height="128" fill="white"/>
</clipPath>
</defs>
</svg>
